<svg width="1041" height="292" viewBox="0 0 1041 292" fill="none" xmlns="http://www.w3.org/2000/svg">
<circle cx="910.258" cy="162" r="130" fill="#F7F8FB"/>
<circle cx="130.937" cy="130.679" r="130" fill="#F7F8FB"/>
<circle cx="395.937" cy="170.679" r="100" fill="#F7F8FB"/>
<circle cx="644.937" cy="120.679" r="100" fill="#F7F8FB"/>
<path d="M746.051 139.693H830.051" stroke="#FFC700" stroke-width="2" stroke-miterlimit="5.75877"/>
<path d="M506.064 139.693H583.064" stroke="#FFC700" stroke-width="2" stroke-miterlimit="5.75877"/>
<path d="M257.901 139.693H356.901" stroke="#FFC700" stroke-width="2" stroke-miterlimit="5.75877"/>
<circle cx="910.258" cy="162" r="100" fill="#FFC700"/>
<path d="M892.785 129H882.73V126.656L887.348 120.785C887.934 119.973 888.363 119.262 888.637 118.652C888.918 118.035 889.059 117.445 889.059 116.883C889.059 116.125 888.926 115.531 888.66 115.102C888.402 114.672 888.027 114.457 887.535 114.457C886.996 114.457 886.566 114.707 886.246 115.207C885.934 115.707 885.777 116.41 885.777 117.316H882.449C882.449 116.27 882.664 115.313 883.094 114.445C883.531 113.578 884.141 112.906 884.922 112.43C885.711 111.945 886.602 111.703 887.594 111.703C889.117 111.703 890.297 112.125 891.133 112.969C891.977 113.805 892.398 114.996 892.398 116.543C892.398 117.504 892.164 118.48 891.695 119.473C891.234 120.457 890.395 121.672 889.176 123.117L886.984 126.246H892.785V129ZM895.211 120.609L896.055 111.938H904.316V114.773H898.773L898.469 118.43C899.109 118 899.77 117.785 900.449 117.785C901.855 117.785 902.938 118.285 903.695 119.285C904.461 120.285 904.844 121.699 904.844 123.527C904.844 125.238 904.391 126.617 903.484 127.664C902.578 128.711 901.367 129.234 899.852 129.234C898.953 129.234 898.121 129.023 897.355 128.602C896.59 128.172 895.984 127.578 895.539 126.82C895.102 126.063 894.879 125.203 894.871 124.242H898.152C898.207 124.953 898.383 125.504 898.68 125.895C898.977 126.285 899.359 126.48 899.828 126.48C900.375 126.48 900.797 126.219 901.094 125.695C901.391 125.164 901.539 124.375 901.539 123.328C901.539 122.344 901.359 121.602 901 121.102C900.648 120.602 900.152 120.352 899.512 120.352C898.887 120.352 898.402 120.566 898.059 120.996L897.848 121.289L895.211 120.609ZM913.07 123.07H907.34V120.305H913.07V123.07ZM925.785 129H915.73V126.656L920.348 120.785C920.934 119.973 921.363 119.262 921.637 118.652C921.918 118.035 922.059 117.445 922.059 116.883C922.059 116.125 921.926 115.531 921.66 115.102C921.402 114.672 921.027 114.457 920.535 114.457C919.996 114.457 919.566 114.707 919.246 115.207C918.934 115.707 918.777 116.41 918.777 117.316H915.449C915.449 116.27 915.664 115.313 916.094 114.445C916.531 113.578 917.141 112.906 917.922 112.43C918.711 111.945 919.602 111.703 920.594 111.703C922.117 111.703 923.297 112.125 924.133 112.969C924.977 113.805 925.398 114.996 925.398 116.543C925.398 117.504 925.164 118.48 924.695 119.473C924.234 120.457 923.395 121.672 922.176 123.117L919.984 126.246H925.785V129ZM935.781 111.762V114.574H935.594C934.352 114.582 933.363 114.957 932.629 115.699C931.902 116.434 931.461 117.465 931.305 118.793C932.016 117.98 932.906 117.574 933.977 117.574C935.211 117.574 936.195 118.102 936.93 119.156C937.672 120.211 938.043 121.617 938.043 123.375C938.043 124.492 937.832 125.5 937.41 126.398C936.988 127.297 936.395 127.996 935.629 128.496C934.871 128.988 934.012 129.234 933.051 129.234C931.504 129.234 930.262 128.613 929.324 127.371C928.395 126.129 927.93 124.457 927.93 122.355V121.125C927.93 119.242 928.223 117.594 928.809 116.18C929.402 114.766 930.254 113.68 931.363 112.922C932.48 112.156 933.781 111.77 935.266 111.762H935.781ZM932.934 120.316C932.512 120.316 932.156 120.449 931.867 120.715C931.586 120.98 931.375 121.309 931.234 121.699V122.895C931.234 124.098 931.395 124.996 931.715 125.59C932.035 126.184 932.457 126.48 932.98 126.48C933.512 126.48 933.938 126.195 934.258 125.625C934.578 125.047 934.738 124.309 934.738 123.41C934.738 122.496 934.57 121.754 934.234 121.184C933.906 120.605 933.473 120.316 932.934 120.316ZM882.238 153C882.145 152.805 882.051 152.477 881.957 152.016C881.363 152.828 880.559 153.234 879.543 153.234C878.48 153.234 877.598 152.883 876.895 152.18C876.199 151.477 875.852 150.566 875.852 149.449C875.852 148.121 876.273 147.094 877.117 146.367C877.969 145.641 879.191 145.27 880.785 145.254H881.793V144.234C881.793 143.664 881.695 143.262 881.5 143.027C881.305 142.793 881.02 142.676 880.645 142.676C879.816 142.676 879.402 143.16 879.402 144.129H876.086C876.086 142.957 876.523 141.992 877.398 141.234C878.281 140.469 879.395 140.086 880.738 140.086C882.129 140.086 883.203 140.449 883.961 141.176C884.727 141.895 885.109 142.926 885.109 144.27V150.234C885.125 151.328 885.281 152.184 885.578 152.801V153H882.238ZM880.281 150.633C880.648 150.633 880.961 150.559 881.219 150.41C881.477 150.262 881.668 150.086 881.793 149.883V147.246H880.996C880.434 147.246 879.988 147.426 879.66 147.785C879.34 148.145 879.18 148.625 879.18 149.227C879.18 150.164 879.547 150.633 880.281 150.633ZM897.086 153H893.77V143.086H890.828V153H887.5V140.32H897.086V153ZM909.391 147.059C909.391 149.051 909.047 150.578 908.359 151.641C907.68 152.703 906.664 153.234 905.312 153.234C904.281 153.234 903.453 152.816 902.828 151.98V157.875H899.512V140.32H902.582L902.699 141.48C903.332 140.551 904.195 140.086 905.289 140.086C906.641 140.086 907.656 140.578 908.336 141.563C909.023 142.547 909.375 144.055 909.391 146.086V147.059ZM906.086 146.227C906.086 145 905.949 144.133 905.676 143.625C905.41 143.117 904.957 142.863 904.316 142.863C903.637 142.863 903.141 143.148 902.828 143.719V149.66C903.125 150.207 903.629 150.48 904.34 150.48C904.996 150.48 905.449 150.203 905.699 149.648C905.957 149.094 906.086 148.23 906.086 147.059V146.227ZM916.516 153.234C914.812 153.234 913.484 152.727 912.531 151.711C911.578 150.695 911.102 149.242 911.102 147.352V146.344C911.102 144.344 911.539 142.801 912.414 141.715C913.289 140.629 914.543 140.086 916.176 140.086C917.77 140.086 918.969 140.598 919.773 141.621C920.578 142.637 920.988 144.145 921.004 146.145V147.773H914.406C914.453 148.711 914.66 149.398 915.027 149.836C915.395 150.266 915.961 150.48 916.727 150.48C917.836 150.48 918.762 150.102 919.504 149.344L920.805 151.348C920.398 151.91 919.809 152.367 919.035 152.719C918.262 153.063 917.422 153.234 916.516 153.234ZM914.43 145.453H917.746V145.148C917.73 144.391 917.605 143.816 917.371 143.426C917.137 143.035 916.73 142.84 916.152 142.84C915.574 142.84 915.152 143.047 914.887 143.461C914.629 143.875 914.477 144.539 914.43 145.453ZM932.465 140.32V153H929.148V143.086H927.18L926.992 147C926.875 149.031 926.512 150.535 925.902 151.512C925.293 152.48 924.387 152.977 923.184 153H922.105L922.07 150.234L922.445 150.188C922.891 150.125 923.219 149.801 923.43 149.215C923.641 148.629 923.777 147.668 923.84 146.332L924.062 140.32H932.465ZM944.055 140.32V153H940.762V148.629H939.531L937.469 153H934.129L936.484 147.996C935.844 147.645 935.348 147.176 934.996 146.59C934.652 145.996 934.48 145.324 934.48 144.574C934.48 143.316 934.91 142.293 935.77 141.504C936.637 140.715 937.805 140.32 939.273 140.32H944.055ZM937.797 144.68C937.797 145.125 937.93 145.5 938.195 145.805C938.469 146.102 938.816 146.25 939.238 146.25H940.762V143.051H939.227C938.812 143.051 938.469 143.211 938.195 143.531C937.93 143.844 937.797 144.227 937.797 144.68Z" fill="#DD063A"/>
<path d="M856.422 171.938V189H852.977V182.566C852.062 182.77 851.203 182.871 850.398 182.871C848.539 182.871 847.121 182.402 846.145 181.465C845.168 180.527 844.66 179.176 844.621 177.41V171.938H848.078V177.223C848.078 178.223 848.246 178.938 848.582 179.367C848.926 179.797 849.531 180.012 850.398 180.012C851.234 180.012 852.094 179.91 852.977 179.707V171.938H856.422ZM868 181.617H862.633V186.141H868.984V189H859.188V171.938H868.961V174.809H862.633V178.84H868V181.617ZM875.477 171.938L878.699 184.277L881.91 171.938H886.41V189H882.953V184.383L883.27 177.27L879.859 189H877.516L874.105 177.27L874.422 184.383V189H870.977V171.938H875.477ZM901.164 189H897.719V174.809H892.656V189H889.211V171.938H901.164V189ZM912.309 171.938H915.754V189H912.309V177.703L907.281 189H903.824V171.938H907.281V183.246L912.309 171.938ZM930.52 182.004C930.52 184.293 929.977 186.07 928.891 187.336C927.812 188.602 926.312 189.234 924.391 189.234C922.477 189.234 920.973 188.609 919.879 187.359C918.785 186.102 918.23 184.344 918.215 182.086V179.168C918.215 176.824 918.758 174.996 919.844 173.684C920.93 172.363 922.438 171.703 924.367 171.703C926.266 171.703 927.762 172.352 928.855 173.648C929.949 174.938 930.504 176.75 930.52 179.086V182.004ZM927.062 179.145C927.062 177.605 926.844 176.461 926.406 175.711C925.969 174.961 925.289 174.586 924.367 174.586C923.453 174.586 922.777 174.949 922.34 175.676C921.902 176.395 921.676 177.492 921.66 178.969V182.004C921.66 183.496 921.883 184.598 922.328 185.309C922.773 186.012 923.461 186.363 924.391 186.363C925.289 186.363 925.957 186.02 926.395 185.332C926.832 184.637 927.055 183.563 927.062 182.109V179.145ZM944.957 189H941.523V181.699H936.438V189H932.992V171.938H936.438V178.84H941.523V171.938H944.957V189ZM956.09 185.508H951.391L950.477 189H946.832L952.164 171.938H955.316L960.684 189H957.004L956.09 185.508ZM952.141 182.637H955.328L953.734 176.555L952.141 182.637ZM971.934 174.809H967.715V189H964.258V174.809H960.109V171.938H971.934V174.809ZM876.531 208.766H874.82V215H871.375V197.938H876.871C878.598 197.938 879.93 198.387 880.867 199.285C881.812 200.176 882.285 201.445 882.285 203.094C882.285 205.359 881.461 206.945 879.812 207.852L882.801 214.836V215H879.098L876.531 208.766ZM874.82 205.895H876.777C877.465 205.895 877.98 205.668 878.324 205.215C878.668 204.754 878.84 204.141 878.84 203.375C878.84 201.664 878.172 200.809 876.836 200.809H874.82V205.895ZM895.75 197.938V209.75C895.734 211.523 895.246 212.883 894.285 213.828C893.324 214.766 891.945 215.234 890.148 215.234C888.32 215.234 886.922 214.758 885.953 213.805C884.992 212.852 884.512 211.473 884.512 209.668V197.938H887.98V209.68C887.98 210.648 888.137 211.34 888.449 211.754C888.762 212.168 889.328 212.375 890.148 212.375C890.969 212.375 891.531 212.172 891.836 211.766C892.141 211.352 892.297 210.676 892.305 209.738V197.938H895.75ZM909.93 209.316C909.844 211.262 909.297 212.734 908.289 213.734C907.281 214.734 905.859 215.234 904.023 215.234C902.094 215.234 900.613 214.602 899.582 213.336C898.559 212.063 898.047 210.25 898.047 207.898V205.027C898.047 202.684 898.578 200.879 899.641 199.613C900.703 198.34 902.18 197.703 904.07 197.703C905.93 197.703 907.34 198.223 908.301 199.262C909.27 200.301 909.82 201.793 909.953 203.738H906.496C906.465 202.535 906.277 201.707 905.934 201.254C905.598 200.793 904.977 200.563 904.07 200.563C903.148 200.563 902.496 200.887 902.113 201.535C901.73 202.176 901.527 203.234 901.504 204.711V207.934C901.504 209.629 901.691 210.793 902.066 211.426C902.449 212.059 903.102 212.375 904.023 212.375C904.93 212.375 905.555 212.156 905.898 211.719C906.242 211.273 906.438 210.473 906.484 209.316H909.93ZM924.062 208.004C924.062 210.293 923.52 212.07 922.434 213.336C921.355 214.602 919.855 215.234 917.934 215.234C916.02 215.234 914.516 214.609 913.422 213.359C912.328 212.102 911.773 210.344 911.758 208.086V205.168C911.758 202.824 912.301 200.996 913.387 199.684C914.473 198.363 915.98 197.703 917.91 197.703C919.809 197.703 921.305 198.352 922.398 199.648C923.492 200.938 924.047 202.75 924.062 205.086V208.004ZM920.605 205.145C920.605 203.605 920.387 202.461 919.949 201.711C919.512 200.961 918.832 200.586 917.91 200.586C916.996 200.586 916.32 200.949 915.883 201.676C915.445 202.395 915.219 203.492 915.203 204.969V208.004C915.203 209.496 915.426 210.598 915.871 211.309C916.316 212.012 917.004 212.363 917.934 212.363C918.832 212.363 919.5 212.02 919.938 211.332C920.375 210.637 920.598 209.563 920.605 208.109V205.145ZM926.535 215V197.938H931.047C933.039 197.938 934.625 198.57 935.805 199.836C936.992 201.102 937.598 202.836 937.621 205.039V207.805C937.621 210.047 937.027 211.809 935.84 213.09C934.66 214.363 933.031 215 930.953 215H926.535ZM929.98 200.809V212.141H931.012C932.16 212.141 932.969 211.84 933.438 211.238C933.906 210.629 934.152 209.582 934.176 208.098V205.133C934.176 203.539 933.953 202.43 933.508 201.805C933.062 201.172 932.305 200.84 931.234 200.809H929.98ZM948.918 207.617H943.551V212.141H949.902V215H940.105V197.938H949.879V200.809H943.551V204.84H948.918V207.617Z" fill="#00248C"/>
<circle cx="644.81" cy="120.637" r="82.9754" fill="#00248C"/>
<path d="M627.085 91.6371H617.03V89.2933L621.648 83.4222C622.234 82.6097 622.663 81.8988 622.937 81.2894C623.218 80.6722 623.359 80.0824 623.359 79.5199C623.359 78.7621 623.226 78.1683 622.96 77.7386C622.702 77.309 622.327 77.0941 621.835 77.0941C621.296 77.0941 620.866 77.3441 620.546 77.8441C620.234 78.3441 620.077 79.0472 620.077 79.9535H616.749C616.749 78.9066 616.964 77.9496 617.394 77.0824C617.831 76.2152 618.441 75.5433 619.222 75.0668C620.011 74.5824 620.902 74.3402 621.894 74.3402C623.417 74.3402 624.597 74.7621 625.433 75.6058C626.277 76.4418 626.698 77.6332 626.698 79.1801C626.698 80.141 626.464 81.1176 625.995 82.1097C625.534 83.0941 624.695 84.309 623.476 85.7543L621.284 88.8832H627.085V91.6371ZM639.226 91.6371H629.171V89.2933L633.788 83.4222C634.374 82.6097 634.804 81.8988 635.077 81.2894C635.359 80.6722 635.499 80.0824 635.499 79.5199C635.499 78.7621 635.366 78.1683 635.101 77.7386C634.843 77.309 634.468 77.0941 633.976 77.0941C633.437 77.0941 633.007 77.3441 632.687 77.8441C632.374 78.3441 632.218 79.0472 632.218 79.9535H628.89C628.89 78.9066 629.105 77.9496 629.534 77.0824C629.972 76.2152 630.581 75.5433 631.363 75.0668C632.152 74.5824 633.042 74.3402 634.034 74.3402C635.558 74.3402 636.738 74.7621 637.573 75.6058C638.417 76.4418 638.839 77.6332 638.839 79.1801C638.839 80.141 638.605 81.1176 638.136 82.1097C637.675 83.0941 636.835 84.309 635.616 85.7543L633.425 88.8832H639.226V91.6371ZM647.37 85.7074H641.64V82.9418H647.37V85.7074ZM660.085 91.6371H650.03V89.2933L654.648 83.4222C655.234 82.6097 655.663 81.8988 655.937 81.2894C656.218 80.6722 656.359 80.0824 656.359 79.5199C656.359 78.7621 656.226 78.1683 655.96 77.7386C655.702 77.309 655.327 77.0941 654.835 77.0941C654.296 77.0941 653.866 77.3441 653.546 77.8441C653.234 78.3441 653.077 79.0472 653.077 79.9535H649.749C649.749 78.9066 649.964 77.9496 650.394 77.0824C650.831 76.2152 651.441 75.5433 652.222 75.0668C653.011 74.5824 653.902 74.3402 654.894 74.3402C656.417 74.3402 657.597 74.7621 658.433 75.6058C659.277 76.4418 659.698 77.6332 659.698 79.1801C659.698 80.141 659.464 81.1176 658.995 82.1097C658.534 83.0941 657.695 84.309 656.476 85.7543L654.284 88.8832H660.085V91.6371ZM670.913 85.1918H672.366V87.9457H670.913V91.6371H667.597V87.9457H661.948L661.796 85.8011L667.585 74.5746H670.913V85.1918ZM665.019 85.1918H667.597V79.4847L667.527 79.6136L665.019 85.1918ZM616.538 115.637C616.445 115.442 616.351 115.114 616.257 114.653C615.663 115.465 614.859 115.871 613.843 115.871C612.78 115.871 611.898 115.52 611.195 114.817C610.499 114.114 610.152 113.203 610.152 112.086C610.152 110.758 610.573 109.731 611.417 109.004C612.269 108.278 613.491 107.907 615.085 107.891H616.093V106.871C616.093 106.301 615.995 105.899 615.8 105.664C615.605 105.43 615.32 105.313 614.945 105.313C614.116 105.313 613.702 105.797 613.702 106.766H610.386C610.386 105.594 610.823 104.629 611.698 103.871C612.581 103.106 613.695 102.723 615.038 102.723C616.429 102.723 617.503 103.086 618.261 103.813C619.027 104.532 619.409 105.563 619.409 106.907V112.871C619.425 113.965 619.581 114.821 619.878 115.438V115.637H616.538ZM614.581 113.27C614.948 113.27 615.261 113.196 615.519 113.047C615.777 112.899 615.968 112.723 616.093 112.52V109.883H615.296C614.734 109.883 614.288 110.063 613.96 110.422C613.64 110.782 613.48 111.262 613.48 111.864C613.48 112.801 613.847 113.27 614.581 113.27ZM631.386 115.637H628.07V105.723H625.128V115.637H621.8V102.957H631.386V115.637ZM643.691 109.696C643.691 111.688 643.347 113.215 642.659 114.278C641.98 115.34 640.964 115.871 639.613 115.871C638.581 115.871 637.753 115.453 637.128 114.618V120.512H633.812V102.957H636.882L636.999 104.118C637.632 103.188 638.495 102.723 639.589 102.723C640.941 102.723 641.956 103.215 642.636 104.2C643.323 105.184 643.675 106.692 643.691 108.723V109.696ZM640.386 108.864C640.386 107.637 640.249 106.77 639.976 106.262C639.71 105.754 639.257 105.5 638.616 105.5C637.937 105.5 637.441 105.786 637.128 106.356V112.297C637.425 112.844 637.929 113.118 638.64 113.118C639.296 113.118 639.749 112.84 639.999 112.286C640.257 111.731 640.386 110.868 640.386 109.696V108.864ZM650.816 115.871C649.113 115.871 647.784 115.364 646.831 114.348C645.878 113.332 645.402 111.879 645.402 109.989V108.981C645.402 106.981 645.839 105.438 646.714 104.352C647.589 103.266 648.843 102.723 650.476 102.723C652.07 102.723 653.269 103.235 654.073 104.258C654.878 105.274 655.288 106.782 655.304 108.782V110.411H648.706C648.753 111.348 648.96 112.036 649.327 112.473C649.695 112.903 650.261 113.118 651.027 113.118C652.136 113.118 653.062 112.739 653.804 111.981L655.105 113.985C654.698 114.547 654.109 115.004 653.335 115.356C652.562 115.7 651.722 115.871 650.816 115.871ZM648.73 108.09H652.046V107.786C652.03 107.028 651.905 106.453 651.671 106.063C651.437 105.672 651.03 105.477 650.452 105.477C649.874 105.477 649.452 105.684 649.187 106.098C648.929 106.512 648.777 107.176 648.73 108.09ZM666.765 102.957V115.637H663.448V105.723H661.48L661.292 109.637C661.175 111.668 660.812 113.172 660.202 114.149C659.593 115.118 658.687 115.614 657.484 115.637H656.405L656.37 112.871L656.745 112.825C657.191 112.762 657.519 112.438 657.73 111.852C657.941 111.266 658.077 110.305 658.14 108.969L658.363 102.957H666.765ZM678.355 102.957V115.637H675.062V111.266H673.831L671.769 115.637H668.429L670.784 110.633C670.144 110.282 669.648 109.813 669.296 109.227C668.952 108.633 668.78 107.961 668.78 107.211C668.78 105.953 669.21 104.93 670.07 104.141C670.937 103.352 672.105 102.957 673.573 102.957H678.355ZM672.097 107.317C672.097 107.762 672.23 108.137 672.495 108.442C672.769 108.739 673.116 108.887 673.538 108.887H675.062V105.688H673.527C673.113 105.688 672.769 105.848 672.495 106.168C672.23 106.481 672.097 106.864 672.097 107.317Z" fill="#FFC700"/>
<path d="M626.848 140.39C626.848 142.107 626.441 143.44 625.626 144.389C624.818 145.338 623.693 145.813 622.251 145.813C620.816 145.813 619.688 145.344 618.867 144.407C618.047 143.463 617.631 142.145 617.619 140.452V138.263C617.619 136.505 618.027 135.134 618.841 134.15C619.655 133.16 620.786 132.664 622.234 132.664C623.657 132.664 624.78 133.151 625.6 134.123C626.42 135.09 626.836 136.45 626.848 138.202V140.39ZM624.255 138.245C624.255 137.091 624.091 136.233 623.763 135.67C623.435 135.108 622.925 134.827 622.234 134.827C621.548 134.827 621.041 135.099 620.713 135.644C620.385 136.183 620.215 137.006 620.203 138.114V140.39C620.203 141.509 620.37 142.335 620.704 142.869C621.038 143.396 621.554 143.66 622.251 143.66C622.925 143.66 623.426 143.402 623.754 142.886C624.082 142.365 624.249 141.559 624.255 140.469V138.245ZM637.632 132.84V145.637H635.048V140.812C634.363 140.964 633.718 141.04 633.114 141.04C631.72 141.04 630.656 140.689 629.924 139.986C629.192 139.283 628.811 138.269 628.781 136.945V132.84H631.374V136.804C631.374 137.554 631.5 138.09 631.752 138.412C632.01 138.735 632.464 138.896 633.114 138.896C633.741 138.896 634.386 138.82 635.048 138.667V132.84H637.632ZM648.68 145.637H646.105V140.161H642.29V145.637H639.706V132.84H642.29V138.017H646.105V132.84H648.68V145.637ZM653.382 137.437H654.911C656.206 137.437 657.238 137.806 658.005 138.544C658.773 139.277 659.156 140.258 659.156 141.489C659.156 142.713 658.781 143.706 658.031 144.468C657.281 145.224 656.288 145.614 655.052 145.637H650.789V132.84H653.382V137.437ZM662.408 145.637H659.824V132.84H662.408V145.637ZM653.382 139.581V143.493H654.946C655.45 143.493 655.846 143.305 656.133 142.93C656.426 142.549 656.572 142.063 656.572 141.471C656.572 140.914 656.429 140.463 656.142 140.118C655.861 139.766 655.468 139.587 654.964 139.581H653.382ZM671.101 140.1H667.075V143.493H671.839V145.637H664.491V132.84H671.821V134.994H667.075V138.017H671.101V140.1ZM603.654 152.84H606.238V165.637H603.654V157.164L599.883 165.637H597.29V152.84H599.883V161.322L603.654 152.84ZM617.277 165.637H614.701V160.161H610.887V165.637H608.303V152.84H610.887V158.017H614.701V152.84H617.277V165.637ZM627.384 154.994H624.22V165.637H621.627V154.994H618.516V152.84H627.384V154.994ZM635.479 160.1H631.453V163.493H636.217V165.637H628.869V152.84H636.199V154.994H631.453V158.017H635.479V160.1ZM646.685 165.637H644.11V160.161H640.295V165.637H637.711V152.84H640.295V158.017H644.11V152.84H646.685V165.637ZM657.443 161.374C657.378 162.833 656.968 163.938 656.212 164.688C655.456 165.438 654.39 165.813 653.013 165.813C651.566 165.813 650.455 165.338 649.682 164.389C648.914 163.434 648.53 162.075 648.53 160.311V158.158C648.53 156.4 648.929 155.046 649.726 154.097C650.523 153.142 651.63 152.664 653.048 152.664C654.443 152.664 655.5 153.054 656.221 153.833C656.947 154.613 657.361 155.732 657.46 157.191H654.867C654.844 156.288 654.703 155.667 654.446 155.328C654.194 154.982 653.728 154.809 653.048 154.809C652.357 154.809 651.867 155.052 651.58 155.538C651.293 156.019 651.141 156.813 651.123 157.92V160.337C651.123 161.609 651.264 162.482 651.545 162.956C651.832 163.431 652.321 163.668 653.013 163.668C653.693 163.668 654.161 163.504 654.419 163.176C654.677 162.842 654.823 162.242 654.859 161.374H657.443ZM665.3 152.84H667.884V165.637H665.3V157.164L661.53 165.637H658.937V152.84H661.53V161.322L665.3 152.84ZM669.949 165.637V152.84H673.905C675.24 152.84 676.254 153.139 676.946 153.737C677.643 154.328 677.991 155.199 677.991 156.347C677.991 156.997 677.848 157.557 677.561 158.026C677.274 158.495 676.881 158.837 676.383 159.054C676.957 159.218 677.4 159.549 677.71 160.047C678.021 160.539 678.176 161.149 678.176 161.875C678.176 163.118 677.833 164.055 677.148 164.688C676.468 165.321 675.481 165.637 674.186 165.637H669.949ZM672.533 160.074V163.493H674.186C674.649 163.493 675 163.349 675.24 163.062C675.481 162.775 675.601 162.368 675.601 161.84C675.601 160.692 675.185 160.103 674.353 160.074H672.533ZM672.533 158.193H673.878C674.892 158.193 675.399 157.668 675.399 156.62C675.399 156.039 675.281 155.623 675.047 155.371C674.813 155.12 674.432 154.994 673.905 154.994H672.533V158.193ZM682.676 157.437H684.205C685.5 157.437 686.531 157.806 687.299 158.544C688.067 159.277 688.45 160.258 688.45 161.489C688.45 162.713 688.075 163.706 687.325 164.468C686.575 165.224 685.582 165.614 684.346 165.637H680.083V152.84H682.676V157.437ZM691.702 165.637H689.118V152.84H691.702V165.637ZM682.676 159.581V163.493H684.24C684.744 163.493 685.14 163.305 685.427 162.93C685.72 162.549 685.866 162.063 685.866 161.471C685.866 160.914 685.723 160.463 685.436 160.118C685.155 159.766 684.762 159.587 684.258 159.581H682.676Z" fill="white"/>
<circle cx="395.822" cy="170.637" r="82.9754" fill="#00248C"/>
<path d="M388.925 135.192H390.379V137.946H388.925V141.637H385.609V137.946H379.961L379.808 135.801L385.597 124.575H388.925V135.192ZM383.031 135.192H385.609V129.485L385.539 129.614L383.031 135.192ZM398.383 135.707H392.652V132.942H398.383V135.707ZM401.383 133.246L402.226 124.575H410.488V127.411H404.945L404.64 131.067C405.281 130.637 405.941 130.422 406.621 130.422C408.027 130.422 409.109 130.922 409.867 131.922C410.633 132.922 411.015 134.336 411.015 136.164C411.015 137.875 410.562 139.254 409.656 140.301C408.75 141.348 407.539 141.871 406.023 141.871C405.125 141.871 404.293 141.661 403.527 141.239C402.761 140.809 402.156 140.215 401.711 139.457C401.273 138.7 401.05 137.84 401.043 136.879H404.324C404.379 137.59 404.554 138.141 404.851 138.532C405.148 138.922 405.531 139.118 406 139.118C406.547 139.118 406.968 138.856 407.265 138.332C407.562 137.801 407.711 137.012 407.711 135.965C407.711 134.981 407.531 134.239 407.172 133.739C406.82 133.239 406.324 132.989 405.683 132.989C405.058 132.989 404.574 133.203 404.23 133.633L404.019 133.926L401.383 133.246ZM367.55 165.637C367.457 165.442 367.363 165.114 367.269 164.653C366.675 165.465 365.871 165.871 364.855 165.871C363.793 165.871 362.91 165.52 362.207 164.817C361.511 164.114 361.164 163.203 361.164 162.086C361.164 160.758 361.586 159.731 362.429 159.004C363.281 158.278 364.504 157.907 366.097 157.891H367.105V156.871C367.105 156.301 367.008 155.899 366.812 155.664C366.617 155.43 366.332 155.313 365.957 155.313C365.129 155.313 364.715 155.797 364.715 156.766H361.398C361.398 155.594 361.836 154.629 362.711 153.871C363.593 153.106 364.707 152.723 366.05 152.723C367.441 152.723 368.515 153.086 369.273 153.813C370.039 154.532 370.422 155.563 370.422 156.907V162.871C370.437 163.965 370.593 164.821 370.89 165.438V165.637H367.55ZM365.593 163.27C365.961 163.27 366.273 163.196 366.531 163.047C366.789 162.899 366.98 162.723 367.105 162.52V159.883H366.308C365.746 159.883 365.3 160.063 364.972 160.422C364.652 160.782 364.492 161.262 364.492 161.864C364.492 162.801 364.859 163.27 365.593 163.27ZM382.398 165.637H379.082V155.723H376.14V165.637H372.812V152.957H382.398V165.637ZM394.703 159.696C394.703 161.688 394.359 163.215 393.672 164.278C392.992 165.34 391.976 165.871 390.625 165.871C389.593 165.871 388.765 165.453 388.14 164.618V170.512H384.824V152.957H387.894L388.011 154.118C388.644 153.188 389.508 152.723 390.601 152.723C391.953 152.723 392.968 153.215 393.648 154.2C394.336 155.184 394.687 156.692 394.703 158.723V159.696ZM391.398 158.864C391.398 157.637 391.261 156.77 390.988 156.262C390.722 155.754 390.269 155.5 389.629 155.5C388.949 155.5 388.453 155.786 388.14 156.356V162.297C388.437 162.844 388.941 163.118 389.652 163.118C390.308 163.118 390.761 162.84 391.011 162.286C391.269 161.731 391.398 160.868 391.398 159.696V158.864ZM401.828 165.871C400.125 165.871 398.797 165.364 397.843 164.348C396.89 163.332 396.414 161.879 396.414 159.989V158.981C396.414 156.981 396.851 155.438 397.726 154.352C398.601 153.266 399.855 152.723 401.488 152.723C403.082 152.723 404.281 153.235 405.086 154.258C405.89 155.274 406.3 156.782 406.316 158.782V160.411H399.718C399.765 161.348 399.972 162.036 400.34 162.473C400.707 162.903 401.273 163.118 402.039 163.118C403.148 163.118 404.074 162.739 404.816 161.981L406.117 163.985C405.711 164.547 405.121 165.004 404.347 165.356C403.574 165.7 402.734 165.871 401.828 165.871ZM399.742 158.09H403.058V157.786C403.043 157.028 402.918 156.453 402.683 156.063C402.449 155.672 402.043 155.477 401.465 155.477C400.886 155.477 400.465 155.684 400.199 156.098C399.941 156.512 399.789 157.176 399.742 158.09ZM417.777 152.957V165.637H414.461V155.723H412.492L412.304 159.637C412.187 161.668 411.824 163.172 411.215 164.149C410.605 165.118 409.699 165.614 408.496 165.637H407.418L407.383 162.871L407.758 162.825C408.203 162.762 408.531 162.438 408.742 161.852C408.953 161.266 409.09 160.305 409.152 158.969L409.375 152.957H417.777ZM429.367 152.957V165.637H426.074V161.266H424.843L422.781 165.637H419.441L421.797 160.633C421.156 160.282 420.66 159.813 420.308 159.227C419.965 158.633 419.793 157.961 419.793 157.211C419.793 155.953 420.222 154.93 421.082 154.141C421.949 153.352 423.117 152.957 424.586 152.957H429.367ZM423.109 157.317C423.109 157.762 423.242 158.137 423.508 158.442C423.781 158.739 424.129 158.887 424.55 158.887H426.074V155.688H424.539C424.125 155.688 423.781 155.848 423.508 156.168C423.242 156.481 423.109 156.864 423.109 157.317Z" fill="#FFC700"/>
<path d="M369.326 190.39C369.326 192.107 368.919 193.44 368.104 194.389C367.296 195.338 366.171 195.813 364.729 195.813C363.294 195.813 362.166 195.344 361.345 194.407C360.525 193.463 360.109 192.145 360.097 190.452V188.263C360.097 186.505 360.505 185.134 361.319 184.15C362.134 183.16 363.264 182.664 364.712 182.664C366.135 182.664 367.258 183.151 368.078 184.123C368.898 185.09 369.314 186.45 369.326 188.202V190.39ZM366.733 188.245C366.733 187.091 366.569 186.233 366.241 185.67C365.913 185.108 365.403 184.827 364.712 184.827C364.026 184.827 363.519 185.099 363.191 185.644C362.863 186.183 362.693 187.006 362.681 188.114V190.39C362.681 191.509 362.848 192.335 363.182 192.869C363.516 193.396 364.032 193.66 364.729 193.66C365.403 193.66 365.904 193.402 366.232 192.886C366.56 192.365 366.727 191.559 366.733 190.469V188.245ZM380.154 195.637H377.579V190.161H373.764V195.637H371.18V182.84H373.764V188.017H377.579V182.84H380.154V195.637ZM391.369 182.84V195.637H388.776V184.994H386.403L386.227 189.529C386.157 191.023 385.987 192.209 385.717 193.088C385.454 193.961 385.064 194.603 384.549 195.013C384.039 195.423 383.35 195.631 382.483 195.637H381.85V193.493L382.149 193.466C382.688 193.402 383.075 193.05 383.309 192.411C383.55 191.767 383.699 190.63 383.758 189.001L383.925 182.84H391.369ZM399.718 193.018H396.194L395.509 195.637H392.775L396.774 182.84H399.138L403.164 195.637H400.404L399.718 193.018ZM396.757 190.865H399.147L397.952 186.303L396.757 190.865ZM410.634 182.84H413.218V195.637H410.634V187.164L406.864 195.637H404.271V182.84H406.864V191.322L410.634 182.84ZM411.812 179.465C411.812 180.245 411.531 180.874 410.968 181.355C410.412 181.835 409.676 182.076 408.762 182.076C407.842 182.076 407.101 181.835 406.539 181.355C405.982 180.874 405.704 180.245 405.704 179.465H407.523C407.523 179.828 407.632 180.113 407.848 180.318C408.071 180.517 408.376 180.617 408.762 180.617C409.143 180.617 409.442 180.517 409.659 180.318C409.876 180.113 409.984 179.828 409.984 179.465H411.812ZM424.258 195.637H421.682V190.161H417.868V195.637H415.284V182.84H417.868V188.017H421.682V182.84H424.258V195.637ZM430.691 191.19H426.393V189.116H430.691V191.19ZM373.334 210.39C373.334 212.107 372.926 213.44 372.112 214.389C371.303 215.338 370.178 215.813 368.737 215.813C367.301 215.813 366.174 215.344 365.353 214.407C364.533 213.463 364.117 212.145 364.105 210.452V208.263C364.105 206.505 364.512 205.134 365.327 204.15C366.141 203.16 367.272 202.664 368.719 202.664C370.143 202.664 371.265 203.151 372.086 204.123C372.906 205.09 373.322 206.45 373.334 208.202V210.39ZM370.741 208.245C370.741 207.091 370.577 206.233 370.249 205.67C369.921 205.108 369.411 204.827 368.719 204.827C368.034 204.827 367.527 205.099 367.199 205.644C366.871 206.183 366.701 207.006 366.689 208.114V210.39C366.689 211.509 366.856 212.335 367.19 212.869C367.524 213.396 368.04 213.66 368.737 213.66C369.411 213.66 369.912 213.402 370.24 212.886C370.568 212.365 370.735 211.559 370.741 210.469V208.245ZM382.72 204.994H379.556V215.637H376.964V204.994H373.852V202.84H382.72V204.994ZM391.378 204.994H386.79V207.437H388.319C389.614 207.437 390.645 207.806 391.413 208.544C392.18 209.277 392.564 210.258 392.564 211.489C392.564 212.713 392.189 213.706 391.439 214.468C390.689 215.224 389.696 215.614 388.46 215.637H384.197V202.84H391.378V204.994ZM386.79 209.581V213.493H388.354C388.858 213.493 389.254 213.305 389.541 212.93C389.834 212.549 389.98 212.063 389.98 211.471C389.98 210.914 389.837 210.463 389.55 210.118C389.268 209.766 388.876 209.587 388.372 209.581H386.79ZM403.041 210.39C403.041 212.107 402.634 213.44 401.819 214.389C401.01 215.338 399.885 215.813 398.444 215.813C397.009 215.813 395.881 215.344 395.06 214.407C394.24 213.463 393.824 212.145 393.812 210.452V208.263C393.812 206.505 394.219 205.134 395.034 204.15C395.848 203.16 396.979 202.664 398.426 202.664C399.85 202.664 400.972 203.151 401.793 204.123C402.613 205.09 403.029 206.45 403.041 208.202V210.39ZM400.448 208.245C400.448 207.091 400.284 206.233 399.956 205.67C399.628 205.108 399.118 204.827 398.426 204.827C397.741 204.827 397.234 205.099 396.906 205.644C396.578 206.183 396.408 207.006 396.396 208.114V210.39C396.396 211.509 396.563 212.335 396.897 212.869C397.231 213.396 397.747 213.66 398.444 213.66C399.118 213.66 399.619 213.402 399.947 212.886C400.275 212.365 400.442 211.559 400.448 210.469V208.245ZM407.479 211.137V215.637H404.895V202.84H409.255C410.52 202.84 411.528 203.233 412.278 204.018C413.034 204.803 413.412 205.823 413.412 207.077C413.412 208.33 413.04 209.321 412.296 210.047C411.551 210.774 410.52 211.137 409.202 211.137H407.479ZM407.479 208.984H409.255C409.747 208.984 410.128 208.823 410.397 208.5C410.667 208.178 410.801 207.709 410.801 207.094C410.801 206.455 410.664 205.949 410.388 205.574C410.113 205.193 409.744 204.999 409.281 204.994H407.479V208.984ZM417.762 207.437H419.292C420.587 207.437 421.618 207.806 422.385 208.544C423.153 209.277 423.537 210.258 423.537 211.489C423.537 212.713 423.162 213.706 422.412 214.468C421.662 215.224 420.669 215.614 419.432 215.637H415.17V202.84H417.762V207.437ZM426.789 215.637H424.205V202.84H426.789V215.637ZM417.762 209.581V213.493H419.327C419.831 213.493 420.226 213.305 420.513 212.93C420.806 212.549 420.953 212.063 420.953 211.471C420.953 210.914 420.809 210.463 420.522 210.118C420.241 209.766 419.848 209.587 419.344 209.581H417.762Z" fill="white"/>
<g filter="url(#filter0_d)">
<circle cx="131.239" cy="130.981" r="99.3789" fill="#DD063A"/>
</g>
<path d="M119.535 92.2939H109.48V89.9501L114.097 84.079C114.683 83.2665 115.113 82.5556 115.386 81.9462C115.668 81.329 115.808 80.7392 115.808 80.1767C115.808 79.4189 115.675 78.8251 115.41 78.3954C115.152 77.9657 114.777 77.7509 114.285 77.7509C113.746 77.7509 113.316 78.0009 112.996 78.5009C112.683 79.0009 112.527 79.704 112.527 80.6103H109.199C109.199 79.5634 109.414 78.6064 109.843 77.7392C110.281 76.872 110.89 76.2001 111.672 75.7236C112.461 75.2392 113.351 74.997 114.343 74.997C115.867 74.997 117.047 75.4189 117.883 76.2626C118.726 77.0986 119.148 78.29 119.148 79.8368C119.148 80.7978 118.914 81.7743 118.445 82.7665C117.984 83.7509 117.144 84.9657 115.925 86.4111L113.734 89.54H119.535V92.2939ZM127.679 86.3642H121.949V83.5986H127.679V86.3642ZM140.394 92.2939H130.34V89.9501L134.957 84.079C135.543 83.2665 135.972 82.5556 136.246 81.9462C136.527 81.329 136.668 80.7392 136.668 80.1767C136.668 79.4189 136.535 78.8251 136.269 78.3954C136.011 77.9657 135.636 77.7509 135.144 77.7509C134.605 77.7509 134.175 78.0009 133.855 78.5009C133.543 79.0009 133.386 79.704 133.386 80.6103H130.058C130.058 79.5634 130.273 78.6064 130.703 77.7392C131.14 76.872 131.75 76.2001 132.531 75.7236C133.32 75.2392 134.211 74.997 135.203 74.997C136.726 74.997 137.906 75.4189 138.742 76.2626C139.586 77.0986 140.008 78.29 140.008 79.8368C140.008 80.7978 139.773 81.7743 139.304 82.7665C138.843 83.7509 138.004 84.9657 136.785 86.4111L134.593 89.54H140.394V92.2939ZM152.043 79.7665C152.043 80.5947 151.867 81.329 151.515 81.9697C151.164 82.6103 150.679 83.122 150.062 83.5048C150.765 83.9032 151.32 84.454 151.726 85.1572C152.133 85.8525 152.336 86.6728 152.336 87.6181C152.336 89.1337 151.898 90.3329 151.023 91.2157C150.148 92.0907 148.957 92.5282 147.449 92.5282C145.941 92.5282 144.742 92.0907 143.851 91.2157C142.961 90.3329 142.515 89.1337 142.515 87.6181C142.515 86.6728 142.718 85.8486 143.125 85.1454C143.531 84.4423 144.09 83.8954 144.8 83.5048C144.175 83.122 143.687 82.6103 143.336 81.9697C142.984 81.329 142.808 80.5947 142.808 79.7665C142.808 78.2743 143.226 77.1064 144.062 76.2626C144.898 75.4189 146.019 74.997 147.425 74.997C148.847 74.997 149.972 75.4228 150.8 76.2743C151.629 77.1259 152.043 78.29 152.043 79.7665ZM147.449 89.7743C147.949 89.7743 148.332 89.5634 148.597 89.1415C148.871 88.7118 149.008 88.1181 149.008 87.3603C149.008 86.6025 148.867 86.0087 148.586 85.579C148.304 85.1493 147.918 84.9345 147.425 84.9345C146.933 84.9345 146.543 85.1493 146.254 85.579C145.972 86.0087 145.832 86.6025 145.832 87.3603C145.832 88.1181 145.972 88.7118 146.254 89.1415C146.543 89.5634 146.941 89.7743 147.449 89.7743ZM148.738 79.9423C148.738 79.2782 148.629 78.747 148.41 78.3486C148.199 77.9501 147.871 77.7509 147.425 77.7509C147.004 77.7509 146.683 77.9462 146.465 78.3368C146.246 78.7197 146.136 79.2548 146.136 79.9423C146.136 80.6142 146.246 81.1572 146.465 81.5712C146.683 81.9775 147.011 82.1806 147.449 82.1806C147.886 82.1806 148.211 81.9775 148.422 81.5712C148.633 81.1572 148.738 80.6142 148.738 79.9423ZM108.472 112.263L110.851 103.614H115.011V116.294H111.695V109.509L109.586 116.294H107.371L105.343 109.731V116.294H102.039V103.614H106.129L108.472 112.263ZM123.789 116.294C123.695 116.099 123.601 115.77 123.508 115.309C122.914 116.122 122.109 116.528 121.093 116.528C120.031 116.528 119.148 116.177 118.445 115.474C117.75 114.77 117.402 113.86 117.402 112.743C117.402 111.415 117.824 110.388 118.668 109.661C119.519 108.934 120.742 108.563 122.336 108.548H123.343V107.528C123.343 106.958 123.246 106.556 123.05 106.321C122.855 106.087 122.57 105.97 122.195 105.97C121.367 105.97 120.953 106.454 120.953 107.423H117.636C117.636 106.251 118.074 105.286 118.949 104.528C119.832 103.763 120.945 103.38 122.289 103.38C123.679 103.38 124.754 103.743 125.511 104.47C126.277 105.188 126.66 106.22 126.66 107.563V113.528C126.675 114.622 126.832 115.477 127.129 116.095V116.294H123.789ZM121.832 113.927C122.199 113.927 122.511 113.852 122.769 113.704C123.027 113.556 123.218 113.38 123.343 113.177V110.54H122.547C121.984 110.54 121.539 110.72 121.211 111.079C120.89 111.438 120.73 111.919 120.73 112.52C120.73 113.458 121.097 113.927 121.832 113.927ZM138.941 110.352C138.941 112.345 138.597 113.872 137.91 114.934C137.23 115.997 136.215 116.528 134.863 116.528C133.832 116.528 133.004 116.11 132.379 115.274V121.169H129.062V103.614H132.133L132.25 104.774C132.883 103.845 133.746 103.38 134.84 103.38C136.191 103.38 137.207 103.872 137.886 104.856C138.574 105.841 138.925 107.349 138.941 109.38V110.352ZM135.636 109.52C135.636 108.294 135.5 107.427 135.226 106.919C134.961 106.411 134.508 106.157 133.867 106.157C133.187 106.157 132.691 106.442 132.379 107.013V112.954C132.675 113.501 133.179 113.774 133.89 113.774C134.547 113.774 135 113.497 135.25 112.942C135.508 112.388 135.636 111.524 135.636 110.352V109.52ZM149.582 106.345H146.324V116.294H143.008V106.345H139.773V103.614H149.582V106.345ZM157.187 116.294C157.093 116.099 157 115.77 156.906 115.309C156.312 116.122 155.508 116.528 154.492 116.528C153.429 116.528 152.547 116.177 151.843 115.474C151.148 114.77 150.8 113.86 150.8 112.743C150.8 111.415 151.222 110.388 152.066 109.661C152.918 108.934 154.14 108.563 155.734 108.548H156.742V107.528C156.742 106.958 156.644 106.556 156.449 106.321C156.254 106.087 155.968 105.97 155.593 105.97C154.765 105.97 154.351 106.454 154.351 107.423H151.035C151.035 106.251 151.472 105.286 152.347 104.528C153.23 103.763 154.343 103.38 155.687 103.38C157.078 103.38 158.152 103.743 158.91 104.47C159.675 105.188 160.058 106.22 160.058 107.563V113.528C160.074 114.622 160.23 115.477 160.527 116.095V116.294H157.187ZM155.23 113.927C155.597 113.927 155.91 113.852 156.168 113.704C156.425 113.556 156.617 113.38 156.742 113.177V110.54H155.945C155.383 110.54 154.937 110.72 154.609 111.079C154.289 111.438 154.129 111.919 154.129 112.52C154.129 113.458 154.496 113.927 155.23 113.927Z" fill="#FFC700"/>
<path d="M95.945 145.298C95.945 147.587 95.4021 149.364 94.3161 150.63C93.238 151.895 91.738 152.528 89.8161 152.528C87.9021 152.528 86.3981 151.903 85.3044 150.653C84.2106 149.395 83.656 147.638 83.6403 145.38V142.462C83.6403 140.118 84.1833 138.29 85.2692 136.977C86.3552 135.657 87.863 134.997 89.7927 134.997C91.6911 134.997 93.1872 135.645 94.281 136.942C95.3747 138.231 95.9294 140.044 95.945 142.38V145.298ZM92.488 142.438C92.488 140.899 92.2692 139.755 91.8317 139.005C91.3942 138.255 90.7146 137.88 89.7927 137.88C88.8786 137.88 88.2028 138.243 87.7653 138.97C87.3278 139.688 87.1013 140.786 87.0856 142.263V145.298C87.0856 146.79 87.3083 147.892 87.7536 148.602C88.1989 149.306 88.8864 149.657 89.8161 149.657C90.7146 149.657 91.3825 149.313 91.82 148.626C92.2575 147.931 92.4802 146.856 92.488 145.403V142.438ZM110.383 152.294H106.949V144.993H101.863V152.294H98.4177V135.231H101.863V142.134H106.949V135.231H110.383V152.294ZM125.336 135.231V152.294H121.879V138.102H118.715L118.48 144.149C118.386 146.142 118.16 147.724 117.8 148.895C117.449 150.059 116.929 150.915 116.242 151.462C115.562 152.009 114.644 152.286 113.488 152.294H112.644V149.434L113.043 149.399C113.761 149.313 114.277 148.845 114.59 147.993C114.91 147.134 115.109 145.618 115.187 143.446L115.41 135.231H125.336ZM136.468 148.802H131.769L130.855 152.294H127.211L132.543 135.231H135.695L141.062 152.294H137.383L136.468 148.802ZM132.519 145.931H135.707L134.113 139.849L132.519 145.931ZM151.023 135.231H154.468V152.294H151.023V140.997L145.996 152.294H142.539V135.231H145.996V146.54L151.023 135.231ZM152.593 130.731C152.593 131.77 152.218 132.61 151.468 133.251C150.726 133.892 149.746 134.212 148.527 134.212C147.3 134.212 146.312 133.892 145.562 133.251C144.82 132.61 144.449 131.77 144.449 130.731H146.875C146.875 131.216 147.019 131.595 147.308 131.868C147.605 132.134 148.011 132.267 148.527 132.267C149.035 132.267 149.433 132.134 149.722 131.868C150.011 131.595 150.156 131.216 150.156 130.731H152.593ZM169.187 152.294H165.754V144.993H160.668V152.294H157.222V135.231H160.668V142.134H165.754V135.231H169.187V152.294ZM177.765 146.364H172.035V143.599H177.765V146.364ZM110.218 171.333H108.718V178.294H105.273V161.231H108.718V168.052H109.879L112.843 161.231H117.039L112.867 169.177L117.508 178.294H113.406L110.218 171.333ZM124.187 168.813L126.484 161.231H130.187L125.511 174.942C124.98 176.302 124.406 177.235 123.789 177.743C123.179 178.251 122.445 178.517 121.586 178.54H121.211L120.39 178.493L120.332 175.634C120.41 175.665 120.664 175.681 121.093 175.681C121.531 175.681 121.859 175.583 122.078 175.388C122.304 175.192 122.5 174.755 122.664 174.075L122.828 173.454L117.953 161.231H121.644L124.187 168.813ZM135.461 172.294V178.294H132.015V161.231H137.828C139.515 161.231 140.859 161.755 141.859 162.802C142.867 163.849 143.371 165.208 143.371 166.88C143.371 168.552 142.875 169.872 141.883 170.841C140.89 171.809 139.515 172.294 137.758 172.294H135.461ZM135.461 169.423H137.828C138.484 169.423 138.992 169.208 139.351 168.778C139.711 168.349 139.89 167.724 139.89 166.903C139.89 166.052 139.707 165.376 139.34 164.876C138.972 164.368 138.48 164.11 137.863 164.102H135.461V169.423ZM157.246 172.61C157.16 174.556 156.613 176.028 155.605 177.028C154.597 178.028 153.175 178.528 151.34 178.528C149.41 178.528 147.929 177.895 146.898 176.63C145.875 175.356 145.363 173.544 145.363 171.192V168.321C145.363 165.977 145.894 164.173 146.957 162.907C148.019 161.634 149.496 160.997 151.386 160.997C153.246 160.997 154.656 161.517 155.617 162.556C156.586 163.595 157.136 165.087 157.269 167.032H153.812C153.781 165.829 153.593 165.001 153.25 164.548C152.914 164.087 152.293 163.856 151.386 163.856C150.465 163.856 149.812 164.181 149.429 164.829C149.047 165.47 148.843 166.528 148.82 168.005V171.227C148.82 172.923 149.008 174.087 149.383 174.72C149.765 175.352 150.418 175.669 151.34 175.669C152.246 175.669 152.871 175.45 153.215 175.013C153.558 174.567 153.754 173.767 153.8 172.61H157.246Z" fill="white"/>
<defs>
<filter id="filter0_d" x="13.8602" y="13.6019" width="238.758" height="238.758" filterUnits="userSpaceOnUse" color-interpolation-filters="sRGB">
<feFlood flood-opacity="0" result="BackgroundImageFix"/>
<feColorMatrix in="SourceAlpha" type="matrix" values="0 0 0 0 0 0 0 0 0 0 0 0 0 0 0 0 0 0 127 0"/>
<feOffset dx="2" dy="2"/>
<feGaussianBlur stdDeviation="10"/>
<feColorMatrix type="matrix" values="0 0 0 0 0.113819 0 0 0 0 0.24316 0 0 0 0 0.620833 0 0 0 0.12 0"/>
<feBlend mode="normal" in2="BackgroundImageFix" result="effect1_dropShadow"/>
<feBlend mode="normal" in="SourceGraphic" in2="effect1_dropShadow" result="shape"/>
</filter>
</defs>
</svg>
