<svg width="25" height="23" viewBox="0 0 25 23" fill="none" xmlns="http://www.w3.org/2000/svg">
<g clip-path="url(#clip0)">
<path d="M9.84375 13.5221C12.562 13.5221 14.7656 11.3059 14.7656 8.57207C14.7656 5.83826 12.562 3.62207 9.84375 3.62207C7.12547 3.62207 4.92188 5.83826 4.92188 8.57207C4.92188 11.3059 7.12547 13.5221 9.84375 13.5221Z" fill="#DD063A"/>
<path d="M19.3922 18.6703C13.8469 13.9843 5.80781 13.9843 0.2625 18.6703C0.0984375 18.8353 0 19.0663 0 19.2973V21.5743C0 22.6963 0.721875 23.4223 1.64062 23.4223H18.0469C18.9656 23.4223 19.6875 22.6963 19.6875 21.7723V19.5283C19.6875 19.0663 19.5891 18.8353 19.3922 18.6703Z" fill="#00248C"/>
<path d="M16.4063 8.57227C16.4063 9.13327 16.3406 9.69427 16.2094 10.1893C16.275 10.1893 16.3406 10.2223 16.4063 10.2223C19.1297 10.2223 21.3281 8.01127 21.3281 5.27227C21.3281 2.53327 19.1297 0.322266 16.4063 0.322266C14.7328 0.322266 13.2235 1.18027 12.3375 2.46727C14.7328 3.45727 16.4063 5.83327 16.4063 8.57227Z" fill="#00248C"/>
<path d="M25.9546 15.3703C22.9358 12.8293 19.1624 11.6743 15.4874 11.9053C14.9952 12.7303 14.3718 13.4233 13.6171 13.9513C16.1108 14.5453 18.4733 15.7003 20.5405 17.4493C21.0655 17.9113 21.3608 18.6043 21.3608 19.2973V20.1223H24.6421C25.5608 20.1223 26.2827 19.3963 26.2827 18.4723V15.9973C26.2499 15.7663 26.1514 15.5353 25.9546 15.3703Z" fill="#00248C"/>
</g>
<defs>
<clipPath id="clip0">
<rect y="0.322266" width="25" height="22" fill="white"/>
</clipPath>
</defs>
</svg>
