<svg width="51" height="71" viewBox="0 0 51 71" fill="none" xmlns="http://www.w3.org/2000/svg">
<g clip-path="url(#clip0)">
<path d="M50.425 25.1611C50.425 44.4611 25.425 70.1611 25.425 70.1611C25.425 70.1611 0.425049 44.4611 0.425049 25.1611C0.425049 8.16113 11.625 0.161133 25.425 0.161133C39.225 0.161133 50.425 8.16113 50.425 25.1611Z" fill="#00248C"/>
<path d="M25.425 40.1611C33.7093 40.1611 40.425 33.4454 40.425 25.1611C40.425 16.8769 33.7093 10.1611 25.425 10.1611C17.1408 10.1611 10.425 16.8769 10.425 25.1611C10.425 33.4454 17.1408 40.1611 25.425 40.1611Z" fill="white"/>
<path d="M25.425 30.1611C28.1865 30.1611 30.425 27.9226 30.425 25.1611C30.425 22.3997 28.1865 20.1611 25.425 20.1611C22.6636 20.1611 20.425 22.3997 20.425 25.1611C20.425 27.9226 22.6636 30.1611 25.425 30.1611Z" fill="#DD063A"/>
</g>
<defs>
<clipPath id="clip0">
<path d="M0.425049 0.161133H50.425V70.1611H0.425049V0.161133Z" fill="white"/>
</clipPath>
</defs>
</svg>
