<svg width="62" height="62" viewBox="0 0 62 62" fill="none" xmlns="http://www.w3.org/2000/svg">
<circle cx="30.5774" cy="30.2385" r="27.5" fill="white" stroke="#DD063A" stroke-width="5"/>
<path d="M28.2727 28.0461V31.0461H29.8327C31.7047 31.0461 32.8327 31.7421 32.8327 33.1101V33.2781C32.8327 34.6701 31.8487 35.5341 30.1447 35.5341C28.2967 35.5341 27.2887 34.5501 26.5447 33.1821L23.8807 35.2461C24.9607 36.9261 26.7127 38.4621 30.0727 38.4621C34.0327 38.4621 36.6247 36.5181 36.6247 33.5181C36.6247 31.2141 35.0887 29.8461 33.0487 29.4861V29.3421C34.8247 29.0301 36.3127 27.7101 36.3127 25.5741C36.3127 22.8861 33.9367 21.1341 30.3127 21.1341C27.3847 21.1341 25.7287 22.2861 24.4327 23.9421L26.7127 26.0541C27.5527 24.7821 28.8007 24.0621 30.1687 24.0621C31.6567 24.0621 32.5207 24.8541 32.5207 26.0541V26.2221C32.5207 27.2541 31.7047 28.0461 29.8567 28.0461H28.2727Z" fill="#010841"/>
</svg>
