<svg width="25" height="25" viewBox="0 0 25 25" fill="none" xmlns="http://www.w3.org/2000/svg">
<g clip-path="url(#clip0)">
<path d="M12.5662 24.3096C19.1936 24.3096 24.5662 18.937 24.5662 12.3096C24.5662 5.68215 19.1936 0.30957 12.5662 0.30957C5.93875 0.30957 0.566162 5.68215 0.566162 12.3096C0.566162 18.937 5.93875 24.3096 12.5662 24.3096Z" fill="#00248C"/>
<path d="M12.5662 21.3096C17.5367 21.3096 21.5662 17.2801 21.5662 12.3096C21.5662 7.33901 17.5367 3.30957 12.5662 3.30957C7.5956 3.30957 3.56616 7.33901 3.56616 12.3096C3.56616 17.2801 7.5956 21.3096 12.5662 21.3096Z" fill="white"/>
<path d="M13.4661 6.30957H11.6661V12.3096H13.4661V6.30957Z" fill="#DD063A"/>
<path d="M13.0688 11.5217L11.796 12.7944L16.748 17.7464L18.0208 16.4737L13.0688 11.5217Z" fill="#DD063A"/>
<path d="M12.5662 13.8096C13.3946 13.8096 14.0662 13.138 14.0662 12.3096C14.0662 11.4811 13.3946 10.8096 12.5662 10.8096C11.7377 10.8096 11.0662 11.4811 11.0662 12.3096C11.0662 13.138 11.7377 13.8096 12.5662 13.8096Z" fill="#DD063A"/>
</g>
<defs>
<clipPath id="clip0">
<rect x="0.566162" y="0.30957" width="24" height="24" fill="white"/>
</clipPath>
</defs>
</svg>
